<svg width="23" height="20" viewBox="0 0 23 20" fill="none" xmlns="http://www.w3.org/2000/svg">
<path d="M14.928 16.72C14.592 16.9813 14.284 17.0653 14.004 16.972C13.724 16.8787 13.4907 16.7107 13.304 16.468L12.576 15.572C11.3813 16.2253 10.056 16.552 8.6 16.552C7.55467 16.552 6.54667 16.384 5.576 16.048C4.60533 15.6933 3.74667 15.18 3 14.508C2.272 13.8173 1.684 12.9773 1.236 11.988C0.806667 10.9987 0.592 9.86 0.592 8.572C0.592 7.452 0.778667 6.40667 1.152 5.436C1.544 4.46533 2.08533 3.616 2.776 2.888C3.48533 2.16 4.33467 1.59067 5.324 1.18C6.31333 0.750667 7.40533 0.536 8.6 0.536C9.664 0.536 10.6813 0.732 11.652 1.124C12.6227 1.516 13.472 2.06667 14.2 2.776C14.9467 3.48533 15.5347 4.33467 15.964 5.324C16.3933 6.29467 16.608 7.37733 16.608 8.572C16.608 9.72933 16.412 10.784 16.02 11.736C15.628 12.6693 15.0773 13.4907 14.368 14.2L15.068 15.068C15.292 15.3293 15.404 15.6093 15.404 15.908C15.404 16.2067 15.2453 16.4773 14.928 16.72ZM8.6 2.664C7.816 2.664 7.06933 2.804 6.36 3.084C5.66933 3.364 5.06267 3.76533 4.54 4.288C4.01733 4.792 3.60667 5.408 3.308 6.136C3.00933 6.864 2.86 7.68533 2.86 8.6C2.86 9.384 2.98133 10.1307 3.224 10.84C3.46667 11.5493 3.83067 12.1747 4.316 12.716C4.80133 13.2573 5.39867 13.6867 6.108 14.004C6.81733 14.3213 7.648 14.48 8.6 14.48C9.048 14.48 9.496 14.4333 9.944 14.34C10.392 14.228 10.8307 14.0693 11.26 13.864L9.58 11.708C9.37467 11.4467 9.26267 11.1667 9.244 10.868C9.244 10.5693 9.39333 10.2987 9.692 10.056C10.028 9.79467 10.336 9.71067 10.616 9.804C10.9147 9.87867 11.1573 10.0467 11.344 10.308L13.024 12.492C13.416 12.0067 13.724 11.4467 13.948 10.812C14.1907 10.1773 14.312 9.44 14.312 8.6C14.312 7.79733 14.172 7.032 13.892 6.304C13.612 5.576 13.22 4.95067 12.716 4.428C12.212 3.88667 11.6053 3.45733 10.896 3.14C10.2053 2.82267 9.44 2.664 8.6 2.664ZM20.5109 19.604C20.0256 19.604 19.6149 19.436 19.2789 19.1C18.9616 18.764 18.8029 18.3533 18.8029 17.868C18.8029 17.3827 18.9709 16.9813 19.3069 16.664C19.6616 16.3467 20.0629 16.188 20.5109 16.188C20.9589 16.188 21.3509 16.3467 21.6869 16.664C22.0416 16.9813 22.2189 17.3827 22.2189 17.868C22.2189 18.3533 22.0509 18.764 21.7149 19.1C21.3789 19.436 20.9776 19.604 20.5109 19.604Z" fill="#FF6D62"/>
</svg>
